<svg xmlns:xlink="http://www.w3.org/1999/xlink" width="24" height="24" viewBox="0 0 24 24" fill="none" xmlns="http://www.w3.org/2000/svg"><path fill-rule="evenodd" clip-rule="evenodd" d="M13.22 3.435 9.532 6.53 5.41 8.03l6.847-5.745a2 2 0 0 1 2.817.246L16.5 4.23a2.99 2.99 0 0 0-1.14.18l-.511.186-.923-1.1a.5.5 0 0 0-.704-.061Zm-1.276 4.878H7.56l8.143-2.964a2 2 0 0 1 2.563 1.195l.644 1.769h-1.597l-.457-1.256a.5.5 0 0 0-.64-.298l-4.27 1.554Zm-6.752 1h14a1.992 1.992 0 0 1 1.492.668c.316.354.508.82.508 1.332v8a2 2 0 0 1-2 2h-14a2 2 0 0 1-2-2v-8a2 2 0 0 1 2-2Zm14.822-.886.009.002-.014-.015.005.013ZM4.75 11.3a.5.5 0 0 1 .5-.5H19.2a.5.5 0 0 1 .5.5v8a.5.5 0 0 1-.5.5H5.25a.5.5 0 0 1-.5-.5v-8Zm6.446 4.326c-.033.905-.768 1.544-1.782 1.544-1.185 0-1.914-.795-1.914-2.086C7.5 13.792 8.227 13 9.414 13c.995 0 1.749.664 1.779 1.56h-.968a.791.791 0 0 0-.811-.721c-.551 0-.889.471-.889 1.242 0 .773.338 1.25.891 1.25.434 0 .757-.28.815-.704h.965ZM13.688 13c1.19 0 1.946.798 1.946 2.084 0 1.288-.756 2.086-1.946 2.086-1.196 0-1.952-.798-1.952-2.086 0-1.286.765-2.084 1.952-2.084Zm0 .834c-.557 0-.927.488-.927 1.25 0 .764.365 1.253.927 1.253.556 0 .924-.489.924-1.253 0-.762-.37-1.25-.924-1.25Zm2.792 3.23a.702.702 0 1 0 0-1.405.702.702 0 0 0 0 1.404Z" fill="#0D1216"></path></svg>