<svg xmlns:xlink="http://www.w3.org/1999/xlink" xmlns="http://www.w3.org/2000/svg" width="16" height="16" viewBox="0 0 16 16"><path fill="#FFFFFF" d="M7.51 4.87C7.01 6.27 6.45 6.95 5.94 7c-.57.07-1.07-.18-1.54-.8a.54.54 0 0 0-.1-.1 1 1 0 1 0-.8.4l.01.12.82 3.24A1.5 1.5 0 0 0 5.78 11h4.44a1.5 1.5 0 0 0 1.45-1.14l.82-3.24a.54.54 0 0 0 .01-.12 1 1 0 1 0-.8-.4.54.54 0 0 0-.1.09c-.49.62-1 .87-1.54.81-.5-.05-1.04-.74-1.57-2.13a1 1 0 1 0-.98 0zM11 11.75a.5.5 0 1 1 0 1H5a.5.5 0 1 1 0-1h6z"></path></svg>