<svg xmlns:xlink="http://www.w3.org/1999/xlink" width="32" height="32" viewBox="0 0 32 32" fill="none" xmlns="http://www.w3.org/2000/svg"><path d="M26.605 7.924c-.032-1.265-.746-2.4-1.784-3.113-.616-.422-1.362-.714-2.14-.714C20.67 4 18.627 4 16.584 4H13.47c-.032 0-.065.032-.097.032-1.362 0-2.724.033-4.087.065-2.043.065-3.794 1.817-3.892 3.827-.032 1.33-.097 5.74-.097 6.52 0 .745-.032 1.524 0 2.27 0 2.464.033 4.93.097 7.394.033 1.265.746 2.4 1.784 3.114.616.421 1.362.713 2.14.713C11.33 28 13.374 28 15.417 28h3.114c.032 0 .064-.032.097-.032 1.362 0 2.724-.033 4.086-.065 2.044-.065 3.795-1.816 3.892-3.827.033-1.33.033-2.692.065-4.022 0-.032.032-.097.032-.13v-2.367c0-.746.033-1.525 0-2.27 0-2.465-.032-4.898-.097-7.363Zm-15.373 7.46c.714 0 1.33.584 1.33 1.297 0 .714-.584 1.297-1.33 1.297-.713 0-1.33-.583-1.33-1.297 0-.713.584-1.297 1.33-1.297ZM9.935 12.95c0-.713.584-1.297 1.33-1.297h9.47c.746 0 1.33.584 1.33 1.297 0 .714-.584 1.298-1.33 1.298h-9.47c-.746.032-1.33-.552-1.33-1.298ZM20.832 23.46H11.135c-1.135 0-1.557-1.07-.973-1.945l1.297-1.979c.552-.875 1.979-.875 2.53 0l.616.94 2.011-3.08c.551-.876 1.978-.876 2.53 0l2.66 4.119c.583.875.129 1.945-.974 1.945Zm-.097-12.94h-9.503c-.746 0-1.33-.584-1.33-1.297 0-.714.584-1.298 1.33-1.298h9.503c.746 0 1.33.584 1.33 1.298 0 .713-.584 1.297-1.33 1.297Z" fill="#0FB8CE"></path></svg>