<svg xmlns:xlink="http://www.w3.org/1999/xlink" width="32" height="32" viewBox="0 0 32 32" fill="none" xmlns="http://www.w3.org/2000/svg"><path fill-rule="evenodd" clip-rule="evenodd" d="M14.078 5.333H5.334A2.667 2.667 0 0 0 2.667 8v2.667c0 .203.023.402.066.592a2.315 2.315 0 0 0-.066.55v12.382c0 1.367 1.194 2.476 2.667 2.476h21.333c1.473 0 2.667-1.109 2.667-2.477V11.81c0-1.368-1.194-2.477-2.667-2.477h-9.333l-.726-2.176a2.667 2.667 0 0 0-2.53-1.824Zm-8.744 4h9.892L14.71 7.79a.667.667 0 0 0-.633-.456H5.334A.667.667 0 0 0 4.667 8v1.411c.213-.05.436-.078.667-.078Zm-.667 2.477c0-.229.267-.477.667-.477h21.333c.4 0 .667.248.667.477v12.38c0 .229-.267.477-.667.477H5.334c-.4 0-.667-.248-.667-.477V11.81Z" fill="#0D1216"></path></svg>