<svg xmlns:xlink="http://www.w3.org/1999/xlink" xmlns="http://www.w3.org/2000/svg" width="48" height="48" viewBox="0 0 48 48"><path fill="#FFFFFF" d="M24 0C10.7 0 0 10.7 0 24s10.7 24 24 24 24-10.7 24-24S37.3 0 24 0zM11.9 15.2c.1-.1.2-.1.2-.1 1.6-.5 2.5-1.4 3-3 0 0 0-.1.1-.2l.1-.1c.1 0 .2-.1.3-.1.4 0 .5.3.5.3.5 1.6 1.4 2.5 3 3 0 0 .1 0 .2.1s.1.2.1.3c0 .4-.3.5-.3.5-1.6.5-2.5 1.4-3 3 0 0-.1.3-.4.3-.6.1-.7-.2-.7-.2-.5-1.6-1.4-2.5-3-3 0 0-.4-.1-.4-.5l.3-.3zm24.2 18.6c-.5.2-.9.6-1.3 1s-.7.8-1 1.3c0 0 0 .1-.1.2-.1 0-.1.1-.3.1-.3-.1-.4-.4-.4-.4-.2-.5-.6-.9-1-1.3s-.8-.7-1.3-1c0 0-.1 0-.1-.1-.1-.1-.1-.2-.1-.3 0-.3.2-.4.2-.4.5-.2.9-.6 1.3-1s.7-.8 1-1.3c0 0 .1-.2.4-.2.3 0 .4.2.4.2.2.5.6.9 1 1.3s.8.7 1.3 1c0 0 .2.1.2.4 0 .4-.2.5-.2.5zm-.7-8.7s-4.6 1.5-5.7 2.4c-1 .6-1.9 1.5-2.4 2.5-.9 1.5-2.2 5.4-2.2 5.4-.1.5-.5.9-1 .9v-.1.1c-.5 0-.9-.4-1.1-.9 0 0-1.5-4.6-2.4-5.7-.6-1-1.5-1.9-2.5-2.4-1.5-.9-5.4-2.2-5.4-2.2-.5-.1-.9-.5-.9-1h.1-.1c0-.5.4-.9.9-1.1 0 0 4.6-1.5 5.7-2.4 1-.6 1.9-1.5 2.4-2.5.9-1.5 2.2-5.4 2.2-5.4.1-.5.5-.9 1-.9s.9.4 1 .9c0 0 1.5 4.6 2.4 5.7.6 1 1.5 1.9 2.5 2.4 1.5.9 5.4 2.2 5.4 2.2.5.1.9.5.9 1h-.1.1c.1.5-.2.9-.8 1.1z"></path></svg>