<svg xmlns:xlink="http://www.w3.org/1999/xlink" width="32" height="32" viewBox="0 0 32 32" fill="none" xmlns="http://www.w3.org/2000/svg"><path d="M27.924 8.454c-.032-1.15-.608-2.174-1.471-2.877-.672-.544-1.471-.895-2.366-.96a226.297 226.297 0 0 0-8.09-.127c-2.717 0-5.403.032-8.088.128-.864.032-1.663.383-2.334.927-.864.703-1.471 1.758-1.503 2.91a185.346 185.346 0 0 0 0 10.327c.064 2.014 1.79 3.772 3.837 3.836 1.534.064 3.037.064 4.572.064l-2.046 3.645c-.288.543.095 1.183.67 1.183h1.727a.78.78 0 0 0 .672-.384l.224-.383 1.534-2.718a.901.901 0 0 1 1.567 0l1.726 3.101c.128.256.384.384.672.384h1.726c.576 0 .96-.64.672-1.151l-.64-1.12-1.406-2.525c1.502-.032 3.037-.032 4.54-.064 2.014-.064 3.773-1.822 3.836-3.837.064-3.453.064-6.906-.031-10.359ZM15.998 18.43c-2.622 0-4.764-2.142-4.764-4.796 0-2.654 2.142-4.796 4.764-4.796v4.796h4.796a4.79 4.79 0 0 1-4.796 4.796Zm1.087-5.883V7.75c2.621 0 4.796 2.142 4.796 4.796h-4.796Z" fill="#FFFFFF"></path></svg>