<svg xmlns:xlink="http://www.w3.org/1999/xlink" width="32" height="32" viewBox="0 0 32 32" fill="none" xmlns="http://www.w3.org/2000/svg"><path d="M27.979 13.771c-.064-2.02-1.796-3.784-3.816-3.848h-.032V7.422a.757.757 0 0 0-.225-.513l-2.533-2.534a.757.757 0 0 0-.513-.224H10.085a2.217 2.217 0 0 0-2.213 2.213v3.56H7.84c-2.02.063-3.784 1.827-3.816 3.847a285.195 285.195 0 0 0 0 7.408c.064 2.02 1.796 3.784 3.816 3.848h.032v.61c0 1.218.994 2.212 2.213 2.212h11.801a2.217 2.217 0 0 0 2.213-2.212v-.61h.032c2.02-.064 3.784-1.828 3.816-3.848.064-1.956.064-5.42.032-7.408ZM9.155 17.844c-.481-.032-.93-.449-.93-.93a16.777 16.777 0 0 1 0-1.796c.032-.48.449-.93.93-.93.61-.032 1.187-.032 1.796 0 .48.032.93.45.93.93.032.61.032 1.187 0 1.796-.032.481-.45.93-.93.93a16.81 16.81 0 0 1-1.796 0Zm12.699 7.023a.746.746 0 0 1-.738.738h-10.23a.746.746 0 0 1-.737-.738v-2.149h11.705v2.149Zm0-13.308H10.117V7.133c0-.417.353-.737.738-.737h8.08v2.886h2.887v2.277h.032Z" fill="#FFFFFF"></path></svg>