<svg xmlns:xlink="http://www.w3.org/1999/xlink" width="32" height="32" viewBox="0 0 32 32" fill="none" xmlns="http://www.w3.org/2000/svg"><path d="M27.928 8.7c-.095-2.004-1.813-3.722-3.817-3.817-5.344-.191-10.783-.191-16.222 0-2.004.095-3.722 1.813-3.817 3.817-.096 3.435-.096 6.87 0 10.306.095 2.004 1.813 3.722 3.817 3.817 1.336 0 2.672 0 4.008.095l2.385 3.34c.955 1.336 2.481 1.336 3.436 0l2.385-3.34c1.336 0 2.672 0 4.008-.095 2.004-.095 3.722-1.813 3.817-3.817.096-3.467.096-6.903 0-10.306Zm-6.234 5.216a3.522 3.522 0 0 1-.445.923c-.287.509-1.464 2.131-4.581 4.421h-1.304c-2.418-1.78-3.658-3.149-4.23-3.912a5.85 5.85 0 0 1-.287-.382v-.032l-.032-.031a2.693 2.693 0 0 1-.477-.955 2.726 2.726 0 0 1-.16-.859c0-.19.033-.35.064-.508.128-.668.446-1.241.891-1.686a2.93 2.93 0 0 1 2.1-.86c1.208 0 2.258.732 2.735 1.75H16a3.042 3.042 0 0 1 2.736-1.75 3.054 3.054 0 0 1 3.053 3.054c.032.287-.032.573-.095.827Z" fill="#FF5154"></path></svg>