<svg xmlns:xlink="http://www.w3.org/1999/xlink" width="24" height="24" viewBox="0 0 24 24" fill="none" xmlns="http://www.w3.org/2000/svg"><path d="M14.899 11.045C16.162 10.132 17 8.657 17 7c0-2.736-2.264-5-5-5S7 4.264 7 7c0 1.684.862 3.184 2.159 4.093C6.185 12.353 4.074 15.458 4 19.06c0 .418.193.732.482.941 2.313 1.255 4.819 1.986 7.518 1.986s5.301-.732 7.518-1.986c.289-.209.482-.523.482-.941 0-3.651-2.094-6.788-5.101-8.015ZM8.5 7c0-1.897 1.603-3.5 3.5-3.5s3.5 1.603 3.5 3.5c0 1.859-1.541 3.425-3.387 3.488l-.017-.001c-.048 0-.095.007-.143.008C10.077 10.468 8.5 8.881 8.5 7ZM12 20.487c-2.198 0-4.38-.552-6.492-1.64.192-3.752 3.026-6.769 6.444-6.852.017 0 .032.005.048.005.039 0 .075-.011.114-.012 3.459.011 6.283 3.066 6.383 6.862A13.784 13.784 0 0 1 12 20.487Z" fill="#0D1216" fill-opacity="0.7"></path></svg>