<svg xmlns:xlink="http://www.w3.org/1999/xlink" width="32" height="32" viewBox="0 0 32 32" fill="none" xmlns="http://www.w3.org/2000/svg"><path d="m25.834 10.931-2.946 2.109c-.029-.982-.029-1.993-.029-2.975-.058-1.82-1.617-3.38-3.437-3.437a204.296 204.296 0 0 0-11.899 0c-1.819.058-3.379 1.617-3.436 3.437a203.323 203.323 0 0 0 0 11.87c.057 1.82 1.617 3.38 3.436 3.437 3.957.115 7.914.115 11.9 0 1.819-.058 3.378-1.617 3.436-3.437.03-.982.03-1.993.03-2.975l2.945 2.08c1.184.837 2.166.346 2.166-1.098V12.03c-.029-1.444-.982-1.964-2.166-1.098Zm-9.386 6.354-4.65 2.686c-1.27.722-2.282.116-2.282-1.328v-5.315c0-1.444 1.04-2.05 2.282-1.328l4.679 2.686c1.241.722 1.241 1.877-.03 2.6Z" fill="#D269E6"></path></svg>