<svg xmlns:xlink="http://www.w3.org/1999/xlink" width="32" height="32" viewBox="0 0 32 32" fill="none" xmlns="http://www.w3.org/2000/svg"><path d="M26.485 6.24c-1.39-1.39-3.798-1.39-8.417-1.39h-3.983c-4.712 0-7.028 0-8.51 1.482C4 7.815 4 10.131 4 14.842v2.316c0 4.711 0 7.027 1.482 8.51 1.482 1.482 3.798 1.482 8.51 1.482h3.983c4.712 0 7.028 0 8.51-1.482 1.482-1.483 1.482-3.891 1.482-8.603V14.75c.093-4.632.093-7.12-1.482-8.51Zm-8.457 2.117c.953 0 1.76.807 1.76 1.76s-.807 1.76-1.76 1.76c-.952 0-1.76-.807-1.76-1.76-.013-.94.808-1.76 1.76-1.76Zm-4.314 0c.953 0 1.76.807 1.76 1.76s-.807 1.76-1.76 1.76-1.76-.807-1.76-1.76c0-.94.807-1.76 1.76-1.76Zm-4.301 0c.953 0 1.76.807 1.76 1.76s-.807 1.76-1.76 1.76-1.76-.807-1.76-1.76c-.014-.94.807-1.76 1.76-1.76ZM24.38 21.34a1.839 1.839 0 0 1-1.84 1.853H9.492A1.858 1.858 0 0 1 7.64 21.34v-5.545c0-1.02.834-1.853 1.853-1.853h13.036c1.02 0 1.853.834 1.853 1.853v5.545Z" fill="#575EFD"></path></svg>