<svg xmlns:xlink="http://www.w3.org/1999/xlink" width="32" height="32" viewBox="0 0 32 32" fill="none" xmlns="http://www.w3.org/2000/svg"><path d="M26.487 6.237C25.099 4.85 22.693 4.85 18.066 4.85h-3.98c-4.719 0-7.032 0-8.513 1.48C4 7.81 4 10.125 4 14.844v2.314c0 4.72 0 7.033 1.48 8.513 1.481 1.48 3.795 1.48 8.514 1.48h3.98c4.719 0 7.032 0 8.513-1.48 1.48-1.48 1.48-3.886 1.48-8.606v-2.313c.093-4.627.093-7.126-1.48-8.514ZM12.174 23.603H8.596c-.617 0-1.08-.493-1.08-1.08v-3.577H9.8v2.406h2.406v2.252h-.03ZM24.39 10.648v2.406h-2.282v-2.406H19.7V8.366h3.609c.586 0 1.048.493 1.08 1.08v1.202Z" fill="#21A663"></path></svg>